<svg xmlns="http://www.w3.org/2000/svg" width="68" height="68" opacity="0.04" fill="none"><g clip-path="url(#a)" fill="#fff"><path fill-rule="evenodd" clip-rule="evenodd" d="M68 67.203 34.797 34l2.159-2.159L65.14 60.025l-1.448 1.448L68 65.78v-1.448l-2.86-2.86 2.86-2.86v-1.518l-9.374-9.375L68 38.346V0h-.74L34.017 33.243.773 0H0v38.348l9.372 9.372L0 57.093v1.522l2.858 2.858L0 64.33v1.447l4.306-4.305-1.448-1.448 28.229-28.228 2.171 2.171L0 67.226V68h.774l2.163-2.164L5.101 68H6.55l-2.888-2.888 1.448-1.447L9.444 68h1.448l-5.06-5.06 2.892-2.89 6.44 7.95h1.318l-7.03-8.678 2.827-2.828L19.877 68h1.227l-8.086-12.244 4.344-4.344L24.735 68h1.12l-7.718-17.364 4.232-4.23L28.162 68h1.06l-6.018-22.43 4.154-4.154L30.825 68h1.033L28.27 40.503l5.307-5.307V68H34.6V35.277l5.627 5.627L37.344 68h1.03l2.783-26.166 4.78 4.78L40.209 68h1.06l5.506-20.55 3.609 3.608-.08-.032L43.335 68h1.106l6.66-16.223 4.09 4.09L47.611 68h1.207l7.114-11.39 3.236 3.234-.112-.089L52.47 68h1.31l6.014-7.53 2.483 2.483L57.23 68h1.448L63 63.677l1.448 1.448L61.574 68h1.448l2.15-2.151L67.325 68H68v-.797Zm-5.745-60.66 5.296-5.297v36.101l-1.13 1.13-4.166-31.935ZM57.197 11.6l4.145-4.145 4.165 31.935-.673.674L57.197 11.6Zm-5.058 5.058 4.222-4.223L63.998 40.9l-.751.752-11.108-24.993Zm-5.112 5.111 4.336-4.336 11.108 24.993-1.085 1.085L47.027 21.77Zm-3.562 3.562 2.823-2.823 14.36 21.742-1.026 1.025-16.157-19.944Zm-3.614 3.614 2.887-2.887 16.157 19.945-.993.993-18.05-18.05Zm-2.171 2.171 1.447-1.447 28.184 28.184-1.447 1.447L37.68 31.117ZM.503 1.213 6.13 6.84l-3.48 32.71-2.148-2.148V1.213ZM12.68 13.39l3.646 3.646-.123-.05L5.693 42.592l-.663-.663.004.001 7.647-28.54ZM6.477 43.377 17.01 17.72l4.092 4.092L7.188 44.09l-.71-.712Zm1.456 1.451-.015-.01.99.99 16.05-20.093.237.19-3.35-3.35L7.932 44.827Zm2.163 2.169-.46-.46 16.072-20.12 2.484 2.484-18.096 18.096Zm18.82-17.372L.685 57.854 2.135 59.3l28.229-28.228-1.448-1.448ZM3.581 40.482l3.48-32.71 4.783 4.783-7.648 28.543-.615-.616Z"/><path d="m0 62.883 1.41-1.41L0 60.063v2.82ZM0 52.75l4.306-4.306L0 44.138v1.448l2.858 2.858L0 51.302v1.448Z"/><path fill-rule="evenodd" clip-rule="evenodd" d="m34.061 10.126-4.343 4.343 4.343 4.343 4.343-4.343-4.343-4.343Zm0 7.238 2.896-2.895-2.896-2.895-2.895 2.895 2.895 2.895Z"/><path d="m34.061 26.05-1.447 1.448 1.447 1.447 1.448-1.447-1.448-1.448Z"/><path fill-rule="evenodd" clip-rule="evenodd" d="m5.116 0 26.05 26.05-1.448 1.448 4.343 4.342 4.343-4.342-1.447-1.448L63.007 0h-1.448L36.233 25.326l-1.448-1.447L58.664 0h-1.448L44.195 13.021l-.46-.459L53.77 0h-1.31l-9.452 11.834-.99-.99.015.009L48.81 0h-1.207l-6.316 10.114-.711-.712L44.436 0h-1.107L39.79 8.618l-.662-.663.003.001L41.264 0h-1.06l-1.908 7.123-.615-.616L38.373 0h-1.03l-.593 5.577-2.149-2.15V0h-1.023v3.372l-1.131 1.13L31.859 0h-1.032l.707 5.416-.674.674L29.226 0h-1.06l1.858 6.925-.75.751L25.86 0h-1.12l3.757 8.452-1.086 1.085L21.114 0h-1.227l6.787 10.276-1.025 1.025L16.494 0h-1.317l9.744 12.028-.993.993L10.906 0H9.46l23.879 23.879-1.448 1.447L6.564 0H5.116Zm19.536 13.745 9.41 9.41 9.409-9.41-9.41-9.41-9.41 9.41Zm9.41 10.857 2.895 2.896-2.896 2.895-2.895-2.895 2.895-2.896Z"/><path d="m68 44.136-4.308 4.308L68 52.752v-1.448l-2.86-2.86 2.86-2.86v-1.448ZM68 60.06l-1.413 1.413L68 62.885V60.06Z"/></g><defs><clipPath id="a"><path fill="#fff" d="M0 0h68v68H0z"/></clipPath></defs></svg>